<svg xmlns="http://www.w3.org/2000/svg" version="1.1" fill="#adb8ca" width="600" height="600" viewBox="0 0 600 600" preserveAspectRatio="xMidYMid meet"><g><path d="M242.914,2.088c4.44,3.292,9.548,5.463,13.481,9.703c6.867,7.402,9.387,16.023,8.195,25.62c-2.668,21.478-5.66,42.919-8.76,64.34c-2.34,16.173-4.051,32.421-6.722,48.565c-2.799,16.914-3.702,34.14-6.436,51.068c-3.241,20.067-5.75,40.227-8.455,60.355c-1.803,13.42-3.591,26.851-5.31,40.286c-2.304,18.011-4.593,36.025-7.031,54.019c-0.952,7.028-2.167,14.026-3.489,20.995c-1.185,6.247-0.75,6.962,5.491,6.962c40.875,0.004,81.75-0.071,122.624,0.107c4.414,0.019,6.3-1.363,6.778-5.626c1.344-11.983,2.746-23.961,4.362-35.91c1.238-9.159,3.077-18.223,3.983-27.448c0.984-10.027,2.653-19.985,3.81-29.997c0.341-2.954,1.593-3.998,4.453-3.989c18.61,0.058,37.219,0.059,55.829,0c2.954-0.009,3.408,0.902,3.024,3.884c-2.872,22.284-6.113,44.518-9.055,66.785c-2.268,17.171-4.145,34.446-6.638,51.574c-2.447,16.812-4.271,33.712-7.033,50.488c-2.388,14.496-3.78,29.155-5.69,43.732c-1.675,12.78-3.597,25.529-5.152,38.324c-1.432,11.789-3.668,23.455-4.862,35.29c-1.163,11.52-6.82,20.542-17.225,26.271c-1.55,0.853-3.537,1.085-4.541,2.833c-6.315,0-12.629,0-18.944,0c-0.504-1.503-1.9-1.611-3.117-2.13c-10.027-4.278-15.735-11.861-18.07-22.528c-1.148-5.246-0.441-10.148,0.243-15.226c1.631-12.104,3.06-24.234,4.701-36.337c1.642-12.114,3.803-24.169,5.068-36.32c1.198-11.51,2.897-22.941,4.584-34.371c1.139-7.715,1.518-7.663-5.949-7.663c-101.676-0.001-203.353-0.02-305.029,0.06c-4.837,0.004-8.947-1.586-13.046-3.764c-7.571-4.023-11.76-10.852-15.36-18.201c0-5.982,0-11.965,0-17.947c1.247-0.768,1.515-2.102,1.966-3.344c3.108-8.564,15.971-19.858,27.508-18.654c5.916,0.617,11.949,0.108,17.929,0.108c32.724,0,65.448-0.051,98.171,0.077c3.366,0.013,4.878-0.757,5.703-4.265c1.594-6.782,2.064-13.717,3.117-20.548c2.615-16.96,3.774-34.149,6.519-51.084c2.564-15.819,4.342-31.726,6.61-47.573c1.755-12.263,2.942-24.62,5.091-36.81c0.837-4.75-0.132-5.501-4.593-5.484c-39.202,0.153-78.404,0.094-117.606,0.07c-1.808-0.001-3.729,0.079-5.406-0.467c-14.633-4.762-23.605-20.279-20.91-35.935c2.33-13.537,16.459-25.294,30.559-25.304c40.531-0.03,81.062-0.054,121.593,0.053c3.515,0.009,5.468-0.654,5.941-4.557c1.269-10.479,2.867-20.919,4.29-31.38c2.293-16.858,4.545-33.722,6.826-50.582c1.705-12.605,3.992-25.163,4.982-37.823c0.938-12.01,6.821-20.321,16.27-26.862c1.863-1.289,4.689-0.916,5.789-3.439C230.285,2.088,236.599,2.088,242.914,2.088z" /><path d="M594.872,197.51c-1.956,1.504-2.275,3.967-3.452,5.929c-5.652,9.423-13.318,15.04-24.894,15.025c-86.228-0.113-172.456-0.061-258.684-0.062c-6.358,0-6.504-0.015-6.036-6.185c0.662-8.73,2.37-17.347,3.33-26.024c0.763-6.894,2.394-13.672,2.625-20.626c0.259-7.782,1.405-8.905,8.898-8.905c20.436-0.001,40.872-0.075,61.306,0.064c3.916,0.027,5.221-1.071,5.787-5.233c1.847-13.584,3.496-27.202,5.363-40.782c2.315-16.839,4.635-33.697,6.659-50.587c1.486-12.402,2.425-25.01,5.901-37.096c2.455-8.538,8.297-14.56,16.189-18.577c1.272-0.647,3.052-0.525,3.522-2.363c6.315,0,12.629,0,18.944,0c0.641,1.981,2.615,1.819,4.054,2.468c10.342,4.663,19.443,17.979,18.505,28.342c-0.936,10.335-2.455,20.635-4.148,30.88c-1.99,12.042-3.196,24.183-5.185,36.235c-2.794,16.923-3.947,34.114-6.609,51.063c-0.845,5.382,0.7,5.663,5.008,5.651c37.511-0.109,75.023-0.115,112.534-0.013c7.671,0.021,14.325,2.887,20.227,7.971c4.533,3.904,6.874,9.188,10.158,13.882C594.872,184.88,594.872,191.195,594.872,197.51z" /><path d="M152.182,600.317c-3.4-2.6-7.71-3.573-10.982-6.512c-10.354-9.3-13.136-20.608-10.632-34.09c2.16-11.634,3.227-23.472,4.716-35.228c0.58-4.579,2.488-8.936,2.084-13.692c-0.175-2.059,1.523-2.254,3.107-2.254c19.088-0.005,38.177,0.03,57.265-0.046c3.234-0.013,3.498,1.686,3.074,4.163c-3.285,19.192-5.583,38.515-7.945,57.836c-1.537,12.574-7.5,22.508-19.44,28.105c-0.865,0.406-1.942,0.602-2.301,1.717C164.812,600.317,158.497,600.317,152.182,600.317z" /><path d="M508.628,445.745c-11.963,0-23.928-0.112-35.888,0.07c-3.471,0.053-4.797-0.978-4.49-4.508c0.545-6.258,1.553-12.488,2.517-18.646c1.683-10.752,3.329-21.505,4.442-32.321c0.47-4.563,1.724-6.548,6.852-6.466c19.767,0.315,39.546,0.347,59.314,0.056c15.009-0.221,27.828,12.512,29.411,25.892c1.646,13.919-3.075,25.155-15.613,32.354c-3.871,2.223-7.998,3.677-12.65,3.617C531.226,445.647,519.926,445.745,508.628,445.745z" /></g></svg>
